<svg width="32" height="32" viewBox="0 0 40 40" fill="none" xmlns="http://www.w3.org/2000/svg">
  <defs>
    <linearGradient id="leafGradientMain" x1="10" y1="10" x2="30" y2="30" gradientUnits="userSpaceOnUse">
      <stop offset="0%" stopColor="#1f6d00" />
      <stop offset="100%" stopColor="#2d8a00" />
    </linearGradient>
    <linearGradient id="leafGradientSub" x1="20" y1="15" x2="35" y2="30" gradientUnits="userSpaceOnUse">
      <stop offset="0%" stopColor="#41b913" />
      <stop offset="100%" stopColor="#68e03e" />
    </linearGradient>
  </defs>

  {/* Main Large Leaf */}
  <path 
    d="M20 36C20 36 34 30 34 18C34 10 28 4 20 4C12 4 6 10 6 18C6 30 20 36 20 36Z" 
    fill="url(#leafGradientMain)"
  />
  
  {/* Secondary Overlapping Leaf / Sprout */}
  <path 
    d="M20 36C20 36 34 32 36 24C38 16 32 10 26 10C20 10 18 16 18 24C18 32 20 36 20 36Z" 
    fill="url(#leafGradientSub)"
    opacity="0.8"
  />

  {/* Organic Vein Structure */}
  <path 
    d="M20 34V10M20 28L26 22M20 22L14 16M20 16L24 12" 
    stroke="white" 
    strokeWidth="1.5" 
    strokeLinecap="round" 
    strokeOpacity="0.5"
  />

  {/* Subtle Ground/Foundation Sprout */}
  <circle cx="20" cy="36" r="2" fill="#1f6d00" />
</svg>
